<svg xmlns="http://www.w3.org/2000/svg" width="495" height="210" viewBox="0 0 495 210" role="img" aria-label="github stats: 1052 contributions in the past year, 1003 commits, 9 pull requests, 39 repos, 1 stars">
<title>github stats: 1052 contributions in the past year, 1003 commits, 9 pull requests, 39 repos, 1 stars</title>
<style>
  text { font-family: 'JetBrains Mono','Fira Code','Cascadia Code',ui-monospace,SFMono-Regular,Menlo,Consolas,monospace; }
  
  .steam { animation: steam 3.3s ease-in-out infinite; }
  @keyframes steam { 0% { opacity: 0; transform: translateY(6px); } 40% { opacity: .5; } 100% { opacity: 0; transform: translateY(-14px); } }
  .rise { animation: rise .8s ease-out both; }
  @keyframes rise { from { opacity: 0; transform: translateY(6px); } to { opacity: 1; transform: translateY(0); } }
  @media (prefers-reduced-motion: reduce) { * { animation: none !important; } }
</style>
<defs>
  <linearGradient id="stbg" x1="0" y1="0" x2="0" y2="1">
    <stop offset="0" stop-color="#2a2540"/><stop offset="1" stop-color="#1e1b2e"/>
  </linearGradient>
  <radialGradient id="stglow" cx="0.85" cy="0" r="0.9">
    <stop offset="0" stop-color="#f6c177" stop-opacity="0.13"/><stop offset="1" stop-color="#f6c177" stop-opacity="0"/>
  </radialGradient>
</defs>
<rect x="1" y="1" width="493" height="208" rx="18" fill="url(#stbg)" stroke="#4a4266" stroke-width="1.5"/>
<rect x="1" y="1" width="493" height="208" rx="18" fill="url(#stglow)"/>
<text x="28" y="40" font-size="16" font-weight="700" fill="#f6c177">☕ coffee counter</text>
<text x="467" y="40" font-size="11" fill="#a59fbf" text-anchor="end">brewing since dec 1, 2025</text>
<line x1="28" y1="54" x2="467" y2="54" stroke="#4a4266" stroke-dasharray="3 5"/>
<g class="rise" style="animation-delay:0.00s">
  <text x="30" y="84" font-size="13" fill="#9ccfb0">✦</text>
  <text x="52" y="84" font-size="13" fill="#a59fbf">contributions · past year</text>
  <text x="312" y="84" font-size="14" font-weight="700" fill="#f3e9d2" text-anchor="end">1,052</text>
</g>
<g class="rise" style="animation-delay:0.12s">
  <text x="30" y="109" font-size="13" fill="#9ccfb0">✎</text>
  <text x="52" y="109" font-size="13" fill="#a59fbf">commits · past year</text>
  <text x="312" y="109" font-size="14" font-weight="700" fill="#f3e9d2" text-anchor="end">1,003</text>
</g>
<g class="rise" style="animation-delay:0.24s">
  <text x="30" y="134" font-size="13" fill="#9ccfb0">⇄</text>
  <text x="52" y="134" font-size="13" fill="#a59fbf">pull requests</text>
  <text x="312" y="134" font-size="14" font-weight="700" fill="#f3e9d2" text-anchor="end">9</text>
</g>
<g class="rise" style="animation-delay:0.36s">
  <text x="30" y="159" font-size="13" fill="#9ccfb0">▣</text>
  <text x="52" y="159" font-size="13" fill="#a59fbf">public repos</text>
  <text x="312" y="159" font-size="14" font-weight="700" fill="#f3e9d2" text-anchor="end">39</text>
</g>
<g class="rise" style="animation-delay:0.48s">
  <text x="30" y="184" font-size="13" fill="#9ccfb0">★</text>
  <text x="52" y="184" font-size="13" fill="#a59fbf">stars collected</text>
  <text x="312" y="184" font-size="14" font-weight="700" fill="#f3e9d2" text-anchor="end">1</text>
</g>
<g transform="translate(350 0)">
  <clipPath id="mug"><rect x="0" y="84" width="84" height="88" rx="14"/></clipPath>
  <path class="steam" style="animation-delay:-0s" d="M18 78 q -5 -6 0 -12 q 5 -6 0 -12" stroke="#f3e9d2" stroke-width="2.5" fill="none" stroke-linecap="round"/><path class="steam" style="animation-delay:-1.1s" d="M38 78 q -5 -6 0 -12 q 5 -6 0 -12" stroke="#f3e9d2" stroke-width="2.5" fill="none" stroke-linecap="round"/><path class="steam" style="animation-delay:-2.2s" d="M58 78 q -5 -6 0 -12 q 5 -6 0 -12" stroke="#f3e9d2" stroke-width="2.5" fill="none" stroke-linecap="round"/>
  <path d="M84 104 h8 a18 18 0 0 1 0 36 h-8" stroke="#eb9f9f" stroke-width="8" fill="none"/>
  <rect x="0" y="84" width="84" height="88" rx="14" fill="#ffffff" fill-opacity="0.06"/>
  <rect clip-path="url(#mug)" x="0" y="172" width="84" height="88" fill="#8a5a44">
    <animate attributeName="y" from="172" to="155.8" dur="1.8s" fill="freeze" calcMode="spline" keySplines="0.3 0 0.2 1" keyTimes="0;1"/>
  </rect>
  <rect x="0" y="84" width="84" height="88" rx="14" fill="none" stroke="#eb9f9f" stroke-width="4"/>
  <text x="42" y="192" font-size="11" fill="#a59fbf" text-anchor="middle">67 cozy days / yr</text>
</g>
</svg>
